<svg xmlns="http://www.w3.org/2000/svg" width="25.863" height="25" viewBox="0 0 25.863 25">
  <g id="_1-logo" data-name="1-logo" transform="translate(-195.122 -603.318)">
    <path id="Path_2165" data-name="Path 2165" d="M196.437,635.786c0,.572.861,1.44,2.474,1.579a5.26,5.26,0,0,0,3.947-1.166,8.411,8.411,0,0,0-4.432-1.623c-.08,0-.16,0-.238.006C197.318,634.633,196.437,635.062,196.437,635.786Z" transform="translate(-0.455 -10.823)" fill="#fff"/>
    <path id="Path_2166" data-name="Path 2166" d="M213.632,608.709a33.726,33.726,0,0,0,3.619-2.084c1.2-.751,2.43-1.528,3.764-2.21.877-.448,1.7-.8,2.44-1.1H212.729l-5.455,6.5A12.823,12.823,0,0,0,213.632,608.709Z" transform="translate(-4.208)" fill="#fff"/>
    <path id="Path_2167" data-name="Path 2167" d="M219.209,608.718a34.848,34.848,0,0,1-3.813,2.19,13.363,13.363,0,0,1-4.7,1.224,6.643,6.643,0,0,1,1.294,2.25,8.689,8.689,0,0,0,2.469,3.813,19.823,19.823,0,0,1,2.518-2.652,5.754,5.754,0,0,1,4.563-1.5,2.594,2.594,0,0,1,1.855,1.345,2.853,2.853,0,0,1,.076,2.4,5.364,5.364,0,0,1-3.306,2.824,7.847,7.847,0,0,1-5.324-.182c-.862,1.03-2.579,3.079-4.387,5.229-.059.069-.116.136-.175.2,2.626,2.058,5.1,3.1,7.37,3.1,2.911,0,5.8-1.54,8.585-4.551V605.15a25.4,25.4,0,0,0-3.393,1.435C221.574,607.231,220.371,607.987,219.209,608.718Z" transform="translate(-5.247 -0.634)" fill="#fff"/>
    <path id="Path_2168" data-name="Path 2168" d="M203.885,628.287c1.7-2.023,3.324-3.958,4.22-5.027a10.484,10.484,0,0,1-2.992-4.562c-1.026-2.937-2.927-2.812-3.58-2.671l-6.411,7.64v3.76a3.951,3.951,0,0,1,2.511-1.008,9.922,9.922,0,0,1,6.035,2.118Z" transform="translate(0 -4.38)" fill="#fff"/>
    <path id="Path_2169" data-name="Path 2169" d="M206.272,603.318H195.122v13.287Z" transform="translate(0 0)" fill="#fff"/>
    <path id="Path_2170" data-name="Path 2170" d="M222.645,624.556a3.751,3.751,0,0,0,2.267-1.837,1.112,1.112,0,0,0-.011-.969.887.887,0,0,0-.662-.439,4.01,4.01,0,0,0-3.113,1.134,16.436,16.436,0,0,0-2.065,2.153A6.26,6.26,0,0,0,222.645,624.556Z" transform="translate(-8.288 -6.218)" fill="#fff"/>
  </g>
</svg>
