<svg xmlns="http://www.w3.org/2000/svg" width="60" height="60" viewBox="0 0 60 60">
  <g id="Group_1371" data-name="Group 1371" transform="translate(-220 -3342)">
    <g id="about_sub03-26" transform="translate(220 3342)" fill="#fff" stroke="#dadada" stroke-width="1">
      <circle cx="30" cy="30" r="30" stroke="none"/>
      <circle cx="30" cy="30" r="29.5" fill="none"/>
    </g>
    <g id="businesswoman" transform="translate(235.964 3267.683)">
      <g id="Group_1370" data-name="Group 1370" transform="translate(0 85.409)">
        <path id="Path_2241" data-name="Path 2241" d="M56.38,106.953h0v-1.42s4.49.138,6.62-2.038c0,0-3.1-.876-2.545-6.528s-.692-10.6-5.237-10.188c0,0-1.964-2.37-5.883-.876-1.346.507-4.951,1.807-4.767,9.626s-2.785,7.865-2.785,7.865,1.531,2.222,6.712,2.176v1.457l3.956,11.516,3.937-11.489Z" transform="translate(-37.931 -85.409)" fill="#dadada"/>
        <path id="Path_2242" data-name="Path 2242" d="M28.241,338.245a4.545,4.545,0,0,0-2.471-3.273l-4.961-2.453c-.286-.138-.562-.3-.839-.452l1.567,4.619-2.185-.166-4.831,5.938L9.7,336.52l-2.185.166,1.6-4.619-1,.507-4.841,2.388A4.568,4.568,0,0,0,.8,338.235l-.793,4.38a.528.528,0,0,0,.516.618H28.517a.523.523,0,0,0,.516-.618Z" transform="translate(0 -309.324)" fill="#dadada"/>
      </g>
    </g>
  </g>
</svg>
